# xmcd
#
# Track frame offsets:
# 150
# 15165
# 29192
# 40552
# 53380
# 65360
# 76715
# 86737
# 96837
# 106230
# 119227
#
# Disc length: 1733 seconds
#
#
# Revision: 3
# Processed by: cddbd v1.5.1PL0 Copyright (c) Steve Scherf et al.
# Submitted via: FreeRIP 2.70 
#
DISCID=7e06c30b
DTITLE=Jones, George - At His Best
DYEAR=1988
DGENRE=Country
TTITLE0=He Stopped Loving Her Today
TTITLE1=Don't Do It Darlin' That Heart Belongs To Me
TTITLE2=Ruby, Don't Take Your Love To Town
TTITLE3=Saginaw, Michigan
TTITLE4=There Goes My Everything
TTITLE5=Apartment No. 9
TTITLE6=Your Angel Steps Out Of Heaven
TTITLE7=A Day In The Life Of A Fool
TTITLE8=Am I That Easy To Forget
TTITLE9=I Threw Away The Rose
TTITLE10=All My Friends Are Going To Be Strangers
EXTD=Entered By Itaot...
EXTT0=
EXTT1=
EXTT2=
EXTT3=
EXTT4=
EXTT5=
EXTT6=
EXTT7=
EXTT8=
EXTT9=
EXTT10=
PLAYORDER=
